<svg width="777" height="65" viewBox="0 0 777 96" fill="none" xmlns="http://www.w3.org/2000/svg">
<g opacity="0.5">
<mask id="path-1-inside-1_0_46" fill="white">
<path fill-rule="evenodd" clip-rule="evenodd" d="M-2.02656e-06 95.9997C-2.02656e-06 95.9997 192.477 -116.458 393.059 95.9997C393.059 95.9997 569.327 -117.754 777 95.9997"/>
</mask>

<path d="M393.059 95.9997L392.332 96.6862L393.109 97.5101L393.83 96.6359L393.059 95.9997ZM-2.02656e-06 95.9997C0.741095 96.6711 0.741495 96.6707 0.742628 96.6694C0.743984 96.6679 0.745848 96.6659 0.748555 96.6629C0.75397 96.6569 0.762307 96.6478 0.773558 96.6355C0.796059 96.6108 0.83021 96.5735 0.875924 96.5239C0.967352 96.4246 1.10503 96.2759 1.28825 96.0802C1.65469 95.6888 2.20331 95.1095 2.92846 94.3617C4.37878 92.8662 6.53514 90.6968 9.3525 88.0092C14.9875 82.6336 23.2652 75.1861 33.8255 66.9099C54.9504 50.3538 85.1856 30.4996 121.652 17.2679C158.113 4.03838 200.783 -2.56456 246.812 7.34651C292.836 17.2565 342.302 43.6948 392.332 96.6862L393.786 95.3132C343.524 42.0755 293.712 15.3993 247.233 5.39132C200.759 -4.61556 157.701 2.06013 120.97 15.3879C84.2448 28.7134 53.8244 48.6952 32.5918 65.3357C21.9732 73.6577 13.6466 81.1487 7.972" fill="white" mask="url(#path-1-inside-1_0_46)"/>
</g>
</svg>